<svg xmlns="http://www.w3.org/2000/svg" version="1.0" width="2489.333" height="737.333" viewBox="0 0 1867 553"><g fill="red"><path d="M1600 5511 c-30 -10 -75 -28 -99 -40 -99 -51 -208 -186 -269 -333 -17 -40 -274 -741 -572 -1558 -508 -1392 -541 -1487 -528 -1510 11 -20 70 -47 318 -144 285 -111 306 -118 330 -104 21 11 45 68 151 358 l126 345 719 3 720 2 123 -342 c80 -222 130 -349 144 -361 14 -12 29 -16 45 -12 13 3 155 57 315 119 256 99 293 116 301 139 8 21 -80 268 -529 1499 -296 810 -553 1508 -571 1552 -94 223 -215 346 -385 391 -78 21 -269 19 -339 -4z m416 -1583 c130 -392 239 -719 242 -725 3 -10 -97 -13 -481 -13 l-485 0 241 725 c133 399 243 725 244 725 1 0 108 -321 239 -712z" transform="matrix(.1 0 0 -.1 0 553)"/><path d="M5952 3746 c-30 -7 -57 -17 -62 -22 -7 -8 -610 -1737 -610 -1750 0 -2 84 -3 187 -2 l186 3 18 55 c10 30 34 108 55 173 l37 117 306 0 307 0 50 -172 51 -173 197 -3 c109 -1 196 1 194 5 -3 5 -132 400 -289 880 l-284 872 -50 12 c-78 18 -233 20 -293 5z m173 -548 c24 -89 69 -252 99 -360 31 -109 56 -202 56 -208 0 -6 -73 -10 -210 -10 -115 0 -210 3 -210 8 0 4 33 117 74 252 40 135 88 300 107 367 18 67 35 120 37 118 2 -2 23 -77 47 -167z" transform="matrix(.1 0 0 -.1 0 553)"/><path d="M10230 3495 c0 -146 -1 -265 -2 -265 -2 0 -25 7 -52 15 -63 19 -222 19 -304 0 -178 -42 -293 -162 -353 -367 -30 -103 -38 -347 -15 -475 39 -224 135 -358 305 -425 97 -38 280 -30 406 18 13 5 15 -20 15 -210 l0 -216 170 0 170 0 0 215 c0 118 2 215 5 215 3 0 32 -9 63 -19 126 -43 280 -36 392 17 112 52 216 194 255 347 39 151 39 385 -1 538 -49 194 -166 315 -349 362 -77 20 -246 20 -311 0 -27 -8 -50 -15 -51 -15 -2 0 -3 119 -3 265 l0 265 -170 0 -170 0 0 -265z m-32 -537 l32 -12 0 -343 0 -342 -42 -12 c-23 -6 -77 -9 -118 -7 -63 2 -84 8 -117 30 -88 58 -134 230 -113 420 18 154 72 253 153 277 40 13 161 6 205 -11z m627 3 c50 -23 78 -53 104 -112 44 -99 52 -298 16 -416 -23 -77 -72 -144 -125 -170 -50 -26 -132 -30 -206 -12 l-44 11 2 342 3 341 50 17 c66 23 150 22 200 -1z" transform="matrix(.1 0 0 -.1 0 553)"/><path d="M14034 3745 c-55 -8 -139 -22 -185 -32 l-84 -18 0 -830 0 -830 70 -23 c141 -45 279 -66 450 -66 247 0 375 42 496 163 106 106 149 224 149 406 0 55 -7 129 -15 164 -70 294 -357 423 -772 345 l-33 -6 0 215 0 214 46 7 c65 8 453 6 544 -3 41 -4 76 -8 76 -7 1 1 4 60 7 133 4 117 3 133 -12 137 -119 37 -563 56 -737 31z m398 -1010 c56 -20 112 -78 127 -132 6 -21 11 -72 11 -113 0 -119 -51 -205 -145 -246 -43 -19 -206 -23 -275 -7 l-35 9 -3 247 -2 247 22 5 c84 18 232 13 300 -10z" transform="matrix(.1 0 0 -.1 0 553)"/><path d="M7353 3245 c-44 -7 -122 -22 -171 -35 l-90 -22 -4 -421 c-4 -412 -4 -423 -27 -480 -13 -32 -40 -77 -62 -99 -21 -23 -39 -44 -39 -47 0 -20 87 -191 97 -191 19 0 138 46 170 66 51 32 104 88 129 136 51 100 56 141 63 483 l6 320 55 8 c56 9 243 3 260 -8 6 -4 10 -190 10 -496 l0 -489 170 0 170 0 0 609 0 609 -107 26 c-60 14 -143 30 -186 35 -104 14 -342 12 -444 -4z" transform="matrix(.1 0 0 -.1 0 553)"/><path d="M11785 3253 c-71 -8 -212 -35 -223 -42 -10 -6 -7 -34 13 -126 14 -66 27 -121 29 -122 2 -2 34 1 72 7 38 5 124 10 192 10 190 0 222 -22 230 -160 l4 -78 -38 9 c-59 13 -221 10 -295 -5 -135 -29 -255 -117 -300 -222 -31 -74 -43 -181 -29 -261 23 -133 92 -222 216 -280 51 -24 74 -28 175 -31 133 -5 207 10 306 60 l63 31 40 -37 c76 -68 77 -68 191 10 56 38 103 74 106 80 2 6 -10 33 -27 60 -66 104 -72 144 -80 514 -8 377 -11 394 -82 475 -77 88 -174 115 -393 113 -77 0 -153 -3 -170 -5z m308 -723 c2 -3 7 -69 9 -147 l5 -141 -43 -11 c-23 -6 -75 -11 -114 -11 -131 0 -186 54 -178 172 4 50 9 64 35 90 18 17 52 36 79 44 45 13 197 15 207 4z" transform="matrix(.1 0 0 -.1 0 553)"/><path d="M15400 3254 c-93 -12 -216 -36 -224 -44 -5 -5 1 -59 15 -130 23 -121 23 -121 49 -115 55 13 345 17 388 6 62 -17 82 -54 82 -152 l0 -77 -37 9 c-69 16 -225 10 -307 -11 -101 -25 -168 -63 -221 -123 -59 -65 -86 -140 -92 -253 -9 -145 27 -238 122 -322 70 -61 139 -84 267 -90 131 -5 227 14 313 62 l60 33 53 -48 c30 -27 60 -49 69 -49 11 0 179 109 216 140 4 4 -8 33 -28 66 -65 107 -67 124 -75 494 -5 213 -12 350 -20 375 -18 61 -68 133 -114 164 -78 53 -126 63 -311 66 -93 2 -186 1 -205 -1z m286 -720 c19 -5 21 -15 27 -134 4 -71 9 -135 12 -142 8 -19 -75 -38 -163 -38 -114 0 -169 43 -178 141 -8 88 37 147 129 169 39 10 144 12 173 4z" transform="matrix(.1 0 0 -.1 0 553)"/><path d="M18430 3241 c-95 -29 -135 -77 -231 -277 -88 -183 -106 -204 -180 -204 l-49 0 0 235 0 235 -170 0 -170 0 0 -630 0 -630 170 0 170 0 0 255 0 255 45 0 c57 0 85 -13 113 -54 23 -34 110 -222 172 -373 l34 -83 168 0 168 0 0 39 c0 28 -26 93 -97 242 -139 293 -164 333 -235 368 l-41 20 25 10 c47 18 98 83 153 197 57 117 98 164 140 164 26 0 28 8 41 163 l6 77 -104 -1 c-56 0 -114 -4 -128 -8z" transform="matrix(.1 0 0 -.1 0 553)"/><path d="M8342 2638 l3 -603 63 -22 c178 -64 459 -87 602 -49 191 49 305 165 340 344 18 89 8 232 -21 306 -45 115 -162 209 -296 236 -57 12 -269 8 -325 -6 l-28 -6 0 201 0 201 -170 0 -170 0 2 -602z m588 -67 c113 -56 107 -279 -10 -339 -39 -20 -56 -23 -130 -20 -47 2 -91 7 -98 12 -9 5 -12 54 -12 181 l0 173 53 10 c66 13 152 6 197 -17z" transform="matrix(.1 0 0 -.1 0 553)"/><path d="M16320 2600 l0 -630 170 0 170 0 0 255 0 255 180 0 180 0 0 -255 0 -255 165 0 165 0 0 630 0 630 -165 0 -165 0 0 -235 0 -235 -180 0 -180 0 0 235 0 235 -170 0 -170 0 0 -630z" transform="matrix(.1 0 0 -.1 0 553)"/><path d="M13040 2811 c-50 -16 -90 -42 -113 -73 -110 -149 -12 -349 170 -348 168 1 264 179 178 326 -43 74 -158 120 -235 95z" transform="matrix(.1 0 0 -.1 0 553)"/><path d="M17 729 c-16 -9 -17 -37 -17 -357 0 -257 3 -351 12 -360 9 -9 416 -12 1770 -12 l1758 0 10 26 c6 14 10 162 10 347 0 276 -2 326 -16 345 l-15 22 -1747 0 c-1168 -1 -1753 -4 -1765 -11z" transform="matrix(.1 0 0 -.1 0 553)"/></g></svg>